<svg width="15" height="18" viewBox="0 0 15 18" fill="none" xmlns="http://www.w3.org/2000/svg">
<rect x="4" y="1" width="7" height="3" fill="#FFE6C9"/>
<path d="M10.6 2.60001H12.2C12.6243 2.60001 13.0313 2.76858 13.3314 3.06864C13.6314 3.36869 13.8 3.77566 13.8 4.20001V15.4C13.8 15.8244 13.6314 16.2313 13.3314 16.5314C13.0313 16.8314 12.6243 17 12.2 17H2.6C2.17565 17 1.76869 16.8314 1.46863 16.5314C1.16857 16.2313 1 15.8244 1 15.4V4.20001C1 3.77566 1.16857 3.36869 1.46863 3.06864C1.76869 2.76858 2.17565 2.60001 2.6 2.60001H4.2" stroke="#F5982B" stroke-width="1.6" stroke-linecap="round" stroke-linejoin="round"/>
<path d="M10.2677 8.24034C10.1922 8.16418 10.1023 8.10374 10.0033 8.06249C9.90428 8.02124 9.79808 8 9.69082 8C9.58356 8 9.47737 8.02124 9.37836 8.06249C9.27934 8.10374 9.18948 8.16418 9.11395 8.24034L6.44082 10.9216L5.3927 9.86534C5.31694 9.78958 5.22701 9.72949 5.12803 9.68849C5.02905 9.64749 4.92296 9.62639 4.81582 9.62639C4.70869 9.62639 4.6026 9.64749 4.50362 9.68849C4.40464 9.72949 4.31471 9.78958 4.23895 9.86534C4.16319 9.94109 4.1031 10.031 4.0621 10.13C4.0211 10.229 4 10.3351 4 10.4422C4 10.5493 4.0211 10.6554 4.0621 10.7544C4.1031 10.8534 4.16319 10.9433 4.23895 11.0191L5.86395 12.6441C5.93948 12.7202 6.02934 12.7807 6.12836 12.8219C6.22737 12.8632 6.33356 12.8844 6.44082 12.8844C6.54808 12.8844 6.65428 12.8632 6.75329 12.8219C6.8523 12.7807 6.94217 12.7202 7.0177 12.6441L10.2677 9.39409C10.3439 9.31855 10.4043 9.22869 10.4455 9.12968C10.4868 9.03067 10.508 8.92447 10.508 8.81721C10.508 8.70995 10.4868 8.60375 10.4455 8.50474C10.4043 8.40573 10.3439 8.31587 10.2677 8.24034Z" fill="#F5982B"/>
<path d="M9.80001 1H5.00001C4.55818 1 4.20001 1.35817 4.20001 1.8V3.4C4.20001 3.84183 4.55818 4.2 5.00001 4.2H9.80001C10.2418 4.2 10.6 3.84183 10.6 3.4V1.8C10.6 1.35817 10.2418 1 9.80001 1Z" stroke="#F5982B" stroke-width="1.6" stroke-linecap="round" stroke-linejoin="round"/>
</svg>
