<svg width="18" height="18" viewBox="0 0 18 18" fill="none" xmlns="http://www.w3.org/2000/svg">
<path d="M16.7442 9C16.7442 4.723 13.277 1.25581 9 1.25581C4.723 1.25581 1.25581 4.723 1.25581 9C1.25581 13.277 4.723 16.7442 9 16.7442C13.277 16.7442 16.7442 13.277 16.7442 9ZM18 9C18 13.9706 13.9706 18 9 18C4.02944 18 0 13.9706 0 9C0 4.02944 4.02944 0 9 0C13.9706 0 18 4.02944 18 9Z" fill="#D93562"/>
<path d="M8.55605 5.20721C8.80126 4.962 9.19874 4.962 9.44395 5.20721L12.7928 8.55605C13.038 8.80126 13.038 9.19874 12.7928 9.44395L9.44395 12.7928C9.19874 13.038 8.80126 13.038 8.55605 12.7928C8.31084 12.5476 8.31084 12.1501 8.55605 11.9049L11.4609 9L8.55605 6.09511C8.31084 5.8499 8.31084 5.45243 8.55605 5.20721Z" fill="#D93562"/>
<path d="M12.3488 8.37209C12.6956 8.37209 12.9767 8.65322 12.9767 9C12.9767 9.34678 12.6956 9.62791 12.3488 9.62791H5.65116C5.30438 9.62791 5.02326 9.34678 5.02326 9C5.02326 8.65322 5.30438 8.37209 5.65116 8.37209H12.3488Z" fill="#D93562"/>
</svg>
