<svg width="14" height="14" viewBox="0 0 14 14" fill="none" xmlns="http://www.w3.org/2000/svg">
<path d="M9.53711 4.55371C9.78354 4.29815 10.1907 4.2907 10.4463 4.53711C10.7018 4.78354 10.7093 5.19071 10.4629 5.44629L6.60547 9.44629C6.36184 9.69882 5.96063 9.70916 5.7041 9.46973L3.56152 7.46973C3.302 7.22747 3.28803 6.82107 3.53027 6.56152C3.77252 6.302 4.17893 6.28803 4.43847 6.53027L6.11816 8.09766L9.53711 4.55371Z" fill="#3C6E47"/>
<path fill-rule="evenodd" clip-rule="evenodd" d="M7 14C3.13401 14 0 10.866 0 7C0 3.13401 3.13401 0 7 0C10.866 0 14 3.13401 14 7C14 10.866 10.866 14 7 14ZM7 1.2002C10.2033 1.2002 12.7998 3.79675 12.7998 7C12.7998 10.2033 10.2033 12.7998 7 12.7998C3.79675 12.7998 1.2002 10.2033 1.2002 7C1.2002 3.79675 3.79675 1.2002 7 1.2002Z" fill="#3C6E47"/>
</svg>
