<svg width="24" height="24" viewBox="-2.5 -2.5 29 30" fill="none" xmlns="http://www.w3.org/2000/svg">
<path d="M0.876465 18.2755V5.62861L11.7516 11.0036V23.3786L0.876465 18.2755Z" fill="#222F3E" fill-opacity="0.2"/>
<path d="M12.1266 10.7536L1.00159 5.62861L12.1266 0.378615L22.5016 5.62862L12.1266 10.7536Z" fill="#222F3E" fill-opacity="0.1"/>
<path d="M22.1011 13.4084L12.4517 18.0285V22.4182L20.6246 18.5061C21.5271 18.0738 22.101 17.162 22.1011 16.1613V13.4084ZM6.57673 20.2756L11.0513 22.4182V18.0285L6.57673 15.8859V20.2756ZM1.40192 11.8557L11.0513 16.4748V11.3098L1.59049 6.77993C1.59049 6.77993 1.50382 6.99416 1.45862 7.19984C1.41341 7.40553 1.40192 7.64516 1.40192 7.64516V11.8557ZM12.4517 11.3098V16.4748L16.9263 14.3322V9.16718L12.4517 11.3098ZM18.3267 8.49726V13.6623L22.1011 11.8557V7.40688C22.1011 7.40688 22.0908 7.24688 22.0446 7.06703C21.9983 6.88719 21.9442 6.76482 21.9442 6.76482L18.3267 8.49726ZM2.47088 5.64792L11.7515 10.091L16.0074 8.05293L6.68219 3.56464L2.80693 5.43963C2.80693 5.43963 2.70952 5.48915 2.64612 5.52797C2.57752 5.56997 2.47088 5.64792 2.47088 5.64792ZM12.8843 1.65937C12.1689 1.31308 11.3342 1.31308 10.6187 1.65937L8.29157 2.78535L17.6265 7.27851L21.0433 5.64215L20.9586 5.58266L20.7353 5.45901L12.8843 1.65937ZM1.40192 16.1613C1.40204 17.162 1.97599 18.0738 2.87848 18.5061L5.17634 19.6057V15.216L1.40192 13.4084V16.1613ZM23.4908 16.4484C23.3885 17.8735 22.5308 19.1454 21.2291 19.7687L11.7515 24.3059L2.27399 19.7687C0.972238 19.1454 0.114616 17.8735 0.0122738 16.4484L0.00153164 16.1613V7.78969C0.00153164 7.78969 -0.0608715 6.68966 0.610961 5.62519C1.28279 4.56072 2.80693 3.88542 2.80693 3.88542L10.0084 0.399605C11.1091 -0.133202 12.394 -0.133202 13.4947 0.399605L21.6334 4.3391C22.7203 5.01625 23.4 6.08656 23.5015 7.26625V16.1613L23.4908 16.4484Z" fill="#222F3E"/>
</svg>
