<svg width="38" height="36" viewBox="0 0 38 36" fill="none" xmlns="http://www.w3.org/2000/svg">
<g clip-path="url(#clip0_44_190)">
<path d="M0 34H4V36L0 34Z" fill="#1945B4"/>
<path d="M1.48619e-06 34L0 1.48619e-06L34 0C36.2091 -9.656e-08 38 1.79086 38 4V30C38 32.2091 36.2091 34 34 34H1.48619e-06Z" fill="#387AF1"/>
<path d="M28.25 17C28.25 11.8914 24.1086 7.75 19 7.75C13.8914 7.75 9.75 11.8914 9.75 17C9.75 22.1086 13.8914 26.25 19 26.25C24.1086 26.25 28.25 22.1086 28.25 17ZM29.75 17C29.75 22.9371 24.9371 27.75 19 27.75C13.0629 27.75 8.25 22.9371 8.25 17C8.25 11.0629 13.0629 6.25 19 6.25C24.9371 6.25 29.75 11.0629 29.75 17Z" fill="white"/>
<path d="M18.4697 12.4697C18.7626 12.1768 19.2374 12.1768 19.5303 12.4697L23.5303 16.4697C23.8232 16.7626 23.8232 17.2374 23.5303 17.5303L19.5303 21.5303C19.2374 21.8232 18.7626 21.8232 18.4697 21.5303C18.1768 21.2374 18.1768 20.7626 18.4697 20.4697L21.9395 17L18.4697 13.5303C18.1768 13.2374 18.1768 12.7626 18.4697 12.4697Z" fill="white"/>
<path d="M23 16.25C23.4142 16.25 23.75 16.5858 23.75 17C23.75 17.4142 23.4142 17.75 23 17.75H15C14.5858 17.75 14.25 17.4142 14.25 17C14.25 16.5858 14.5858 16.25 15 16.25H23Z" fill="white"/>
</g>
<defs>
<clipPath id="clip0_44_190">
<rect width="38" height="36" fill="white"/>
</clipPath>
</defs>
</svg>
