<svg width="15" height="15" viewBox="0 0 15 15" fill="none" xmlns="http://www.w3.org/2000/svg">
<path d="M13.125 6.875C12.9592 6.875 12.8003 6.94085 12.6831 7.05806C12.5658 7.17527 12.5 7.33424 12.5 7.5C12.5074 8.67064 12.1064 9.80724 11.366 10.714C10.6256 11.6208 9.59221 12.241 8.44373 12.4679C7.29525 12.6947 6.10361 12.514 5.07407 11.9567C4.04452 11.3995 3.2415 10.5007 2.80333 9.41516C2.36515 8.32959 2.31925 7.1252 2.67351 6.00942C3.02778 4.89365 3.76005 3.93633 4.74419 3.30236C5.72833 2.66839 6.90275 2.39745 8.06516 2.53619C9.22758 2.67494 10.3052 3.2147 11.1125 4.0625H9.6125C9.44674 4.0625 9.28777 4.12835 9.17056 4.24556C9.05335 4.36277 8.9875 4.52174 8.9875 4.6875C8.9875 4.85326 9.05335 5.01223 9.17056 5.12944C9.28777 5.24665 9.44674 5.3125 9.6125 5.3125H12.4438C12.6095 5.3125 12.7685 5.24665 12.8857 5.12944C13.0029 5.01223 13.0688 4.85326 13.0688 4.6875V1.875C13.0688 1.70924 13.0029 1.55027 12.8857 1.43306C12.7685 1.31585 12.6095 1.25 12.4438 1.25C12.278 1.25 12.119 1.31585 12.0018 1.43306C11.8846 1.55027 11.8188 1.70924 11.8188 1.875V2.98125C10.7779 1.98629 9.42547 1.38122 7.99001 1.26833C6.55455 1.15544 5.12415 1.54165 3.94058 2.36168C2.75701 3.18171 1.89288 4.38525 1.49427 5.76887C1.09566 7.15248 1.18701 8.6313 1.75288 9.95533C2.31876 11.2794 3.32444 12.3674 4.59994 13.0355C5.87543 13.7037 7.3425 13.9109 8.75315 13.6222C10.1638 13.3335 11.4315 12.5665 12.342 11.451C13.2524 10.3355 13.7498 8.93989 13.75 7.5C13.75 7.33424 13.6842 7.17527 13.5669 7.05806C13.4497 6.94085 13.2908 6.875 13.125 6.875Z" fill="#667084"/>
</svg>
